<svg xmlns="http://www.w3.org/2000/svg" width="96px" height="96px" viewBox="0 -960 960 960">
    <defs>
        <!-- Backdrop blur filter matching Tailwind's backdrop-blur-sm -->
        <filter id="backdropBlur" x="-20%" y="-20%" width="140%" height="140%">
            <!-- stdDeviation=4 for a 4px blur -->
            <feGaussianBlur in="BackgroundImage" stdDeviation="4" result="blurredBackground" />
            <feComposite in="blurredBackground" in2="SourceGraphic" operator="over" />
        </filter>

        <!-- Drop shadow filter matching Tailwind's drop-shadow-md -->
        <filter id="dropShadow" x="-20%" y="-20%" width="140%" height="140%">
            <!-- First shadow: 0 4px 3px rgba(0,0,0,0.07) -->
            <feDropShadow dx="0" dy="4" stdDeviation="3" flood-color="black" flood-opacity="0.07" />
            <!-- Second shadow: 0 2px 2px rgba(0,0,0,0.06) -->
            <feDropShadow dx="0" dy="2" stdDeviation="2" flood-color="black" flood-opacity="0.06" />
        </filter>

        <!-- Gradient matching: from-violet-900/15 to-fuchsia-950/25 -->
        <linearGradient id="bgGradient" x1="0%" y1="0%" x2="0%" y2="100%">
            <stop offset="0%" stop-color="rgba(76,29,149,0.15)" />
            <stop offset="100%" stop-color="rgba(74,4,78,0.25)" />
        </linearGradient>
    </defs>

    <!-- background -->
    <rect x="0" y="-960" width="100%" height="100%" rx="20%" ry="20%" fill="rgba(31,41,55,0.95)" stroke="oklch(0.74 0.238 322.16)" stroke-opacity="0.8" stroke-width="2.5" filter="url(#backdropBlur)" />

    <!-- background gradient overlay -->
    <rect x="0" y="-960" width="100%" height="100%" rx="20%" ry="20%" fill="url(#bgGradient)" filter="url(#dropShadow)" />

    <!-- radio icon -->
    <path transform="scale(.64)" transform-origin="50% -50%" fill="oklch(0.872 0.01 258.338)" filter="url(#dropShadow)" d="M160-80q-33 0-56.5-23.5T80-160v-534l523-213q14-5 27.5.5T649-887q5 14-.5 27.5T629-841L332-720h468q33 0 56.5 23.5T880-640v480q0 33-23.5 56.5T800-80H160Zm160-120q42 0 71-29t29-71q0-42-29-71t-71-29q-42 0-71 29t-29 71q0 42 29 71t71 29ZM160-520h480v-40q0-17 11.5-28.5T680-600q17 0 28.5 11.5T720-560v40h80v-120H160v120Z" />
</svg>